<svg width="92" height="162" viewBox="0 0 92 162" fill="none" xmlns="http://www.w3.org/2000/svg">
<g clip-path="url(#clip0_81_344)">
<path fill-rule="evenodd" clip-rule="evenodd" d="M10.6778 45.082L24.8013 54.1241L28.5399 52.957L27.2937 22.915C28.8725 22.239 30.484 21.5901 32.1276 20.9661C41.6807 17.3401 52.3091 14.5761 63.7266 12.4451C69.2042 11.4231 74.8634 10.546 80.6729 9.79004H94.743V102.832H79.8426L79.0115 132.582C77.2177 134.421 75.4616 136.153 73.7511 137.758C65.5339 145.465 58.3664 150.226 53.049 149.79L26.6706 132.582L18.7782 123.832L-1.16122 119.749L-17.1541 125.582L-31.4855 126.749L-38.9628 120.04V113.04L-36.4703 102.54L-27.7469 115.665L-15.7006 103.999L-10.7158 95.54L-6 86L-4 76.5L-27.5389 71.915L-47.4783 52.3741V43.6241L-40.4169 37.207L-35.8472 34.29L-31.2775 37.79L-37.7166 48.582L-35.0161 55.29L-28.5779 55.582L10.6778 45.082Z" fill="#DFC7AF"/>
<path fill-rule="evenodd" clip-rule="evenodd" d="M24.092 27.269L28.2864 26.625C31.9318 79.439 32.9295 98.057 33.2627 104.277C34.3409 124.392 41.9585 124.938 54.3422 120.666C57.7341 119.496 63.0899 116.989 69.6592 120.668C73.2092 122.655 75.1134 125.381 75.5029 125.937L71.2045 130.878C69.9106 128.051 65.054 121.446 57.1765 123.263C53.9135 124.015 46.3465 127.376 40.688 125.771C30.8814 122.99 30.4869 107.49 30.0169 100.87C28.0799 73.57 24.1148 27.539 24.092 27.269Z" fill="#090940"/>
<path fill-rule="evenodd" clip-rule="evenodd" d="M-17.8312 123.868C-15.1814 122.704 -8.93608 120.112 -1.33134 118.747C-0.925432 118.674 -0.614974 118.618 3.77525 119.15C7.41918 119.591 12.5757 120.395 18.5881 121.958C19.6228 122.227 19.6449 122.225 20.4724 123.144C25.025 128.202 35.7965 139.451 52.5669 147.824C54.1493 148.614 55.8434 148.346 57.0647 147.508C59.0715 146.13 67.9538 140.041 68.7193 139.396C70.8314 137.62 75.8961 131.109 76.4921 130.343C78.1734 128.182 78.1656 125.387 78.1684 124.812L78.2788 103.173L82.4654 103.108C82.9169 124.781 83.0002 124.784 82.872 126.298C82.8015 127.124 82.3928 131.953 79.3313 135.434C73.3944 142.185 73.4285 142.241 72.3247 143.345C72.1681 143.502 71.1462 144.539 69.7796 145.419C58.7909 152.499 58.8258 152.624 57.5789 153.176C53.8737 154.817 51.0373 152.906 49.4514 152.057C40.0642 147.029 29.4038 139.62 19.0289 128.318C18.2727 127.494 18.3332 127.405 18.0875 127.082C17.6695 127.022 17.6623 127.123 16.6931 126.881C15.7524 126.646 8.38055 124.742 -0.757393 123.989C-0.762378 123.989 -5.02156 124.629 -10.7684 126.628C-15.2647 128.191 -18.4586 129.79 -18.8417 129.872C-19.1009 129.927 -30.4557 129.755 -31.4655 129.74C-31.8878 129.734 -35.323 128.587 -38.1694 124.915C-39.892 122.692 -41.0884 119.884 -41.2101 119.008C-41.3283 118.153 -40.9431 113.927 -39.2034 107.52C-38.2278 103.926 -38.0832 103.853 -37.7656 103.508C-37.0556 102.736 -36.0046 102.772 -35.3223 103.594C-35.239 103.694 -35.1756 103.826 -35.0909 103.925L-26.9221 113.363C-15.541 101.551 -15.348 101.675 -14.7242 100.286C-14.7206 100.277 -13.4189 97.2281 -13.3997 97.1851C-12.7317 95.6981 -11.8067 94.5771 -10.794 93.8621C-9.74507 93.1221 -41.8931 80.133 -24.7438 72.5L-23.5211 77.944C-40.7708 85.555 -8.61353 98.5841 -9.14477 99.0211C-9.96157 99.6931 -9.812 99.9191 -11.3431 103.298C-11.6023 103.869 -11.89 104.375 -12.1392 104.759C-13.2765 106.512 -13.4922 106.343 -24.7438 115.88L-17.8312 123.868ZM-29.406 119.079C-30.1673 118.685 -30.9285 118.29 -31.6891 117.894C-31.8685 117.8 -32.0936 117.509 -32.1249 117.469C-32.6091 116.843 -32.5009 116.629 -35.459 108.985C-36.3983 112.339 -36.9552 114.847 -37.3184 117.935C-35.8593 121.185 -34.0597 123.091 -31.0653 124.409L-31.0667 124.417C-27.118 124.361 -23.1685 124.518 -19.2198 124.46C-22.4472 122.934 -25.6852 121.455 -28.9004 119.882C-28.946 119.86 -29.1966 119.569 -29.406 119.079Z" fill="#090940"/>
<path fill-rule="evenodd" clip-rule="evenodd" d="M-35.3684 52.6077V46.1977C-33.4898 45.8617 -31.5664 46.7118 -29.6878 46.3758C-29.5938 46.3588 -17.7775 46.429 -12.5 45C-4.44235 42.82 3.72675 43.8027 6.8786 43.5587C17.3069 42.7517 23.4055 50.6757 26.1529 54.4917L24.1667 57.2617C20.0514 51.5537 14.4883 46.2007 5.40876 47.9087C4.82126 48.0197 -13.9022 47.3847 -15.5002 47.9087C-20.0791 49.4117 -24.5983 51.3327 -29.2363 52.4297C-31.2523 52.9057 -33.3524 52.1307 -35.3684 52.6077Z" fill="#090940"/>
<path fill-rule="evenodd" clip-rule="evenodd" d="M26.9946 26.921C25.8175 26.898 25.8025 27.006 24.4146 27.205C24.379 24.979 24.3099 16.049 62.7317 10.119C68.5661 9.21799 74.0046 8.59099 77.4534 8.22299C78.4717 8.11399 78.471 8.10699 78.56 8.10599C86.6526 8.00199 86.6511 8.104 94.743 8V12.863C89.4355 12.939 84.1274 12.912 78.82 12.989C78.1192 12.999 72.0363 13.77 71.4466 13.844C71.2323 13.871 37.0804 17.698 28.844 26.057C28.1725 26.739 27.9816 27.178 27.9289 27.3C27.4497 27.034 27.4205 27.035 26.9946 26.921Z" fill="#090940"/>
<path fill-rule="evenodd" clip-rule="evenodd" d="M80.8802 99.6072C83.2181 99.7092 91.5564 99.8102 95.0778 99.8602L95.1398 104.887C91.6212 105.098 81.2399 105.743 80.5669 105.686C79.7743 105.619 54.9163 102.985 49.2001 109.865C48.3577 110.879 48.4823 111.774 48.5143 112.496L42.1124 112.928C42.1074 109.537 42.3694 101.901 52.535 99.1012C61.7918 96.5502 75.9303 98.8352 80.8802 99.6072Z" fill="#090940"/>
<path fill-rule="evenodd" clip-rule="evenodd" d="M29.2071 32.4512C29.2335 32.4792 29.2477 32.4952 29.2256 32.4792C29.1964 32.4592 29.1993 32.4602 28.8674 32.2212C29.3474 31.1222 32.9707 27.8622 34.8756 26.4632C36.7855 25.0602 42.0324 24.3662 43.1426 24.1602L43.2402 24.7072C42.2546 25.1712 36.5434 27.5542 35.5008 28.2362C30.5815 31.4592 29.9833 31.6982 29.2306 32.4752L29.2071 32.4512ZM29.1786 32.4222L29.0882 32.3302C29.1081 32.3522 29.1459 32.3892 29.1786 32.4222Z" fill="#090940"/>
<path fill-rule="evenodd" clip-rule="evenodd" d="M29.8266 36.429L29.5439 36.0309C31.9153 32.2909 35.3506 29.778 36.2521 28.588C38.0531 26.212 42.3315 26.6769 45.5026 26.5439L45.5595 27.102C42.8691 27.857 38.5181 28.3929 37.2562 30.0009C35.8697 31.7669 32.5961 33.364 29.8266 36.429Z" fill="#090940"/>
<path fill-rule="evenodd" clip-rule="evenodd" d="M30.125 40.6379L29.8843 40.188C33.0197 35.665 36.6566 30.537 44.0199 30.127L44.064 30.687C41.1443 31.624 39.7593 32.541 36.5718 34.935C32.8887 37.702 31.2615 39.5489 30.125 40.6379Z" fill="#090940"/>
<path fill-rule="evenodd" clip-rule="evenodd" d="M30.4126 46.0492L30.0544 45.7962C30.9539 42.9482 32.1481 41.4602 34.8791 39.2112C35.7749 38.4732 35.7187 38.3602 36.0797 38.0212C37.8094 36.3972 43.186 35.7972 44.5568 35.6392L44.6237 36.1952C41.8329 37.2392 37.4776 38.9002 36.732 39.8442C36.0697 40.6812 34.4617 41.4482 32.9926 42.6902C31.2957 44.1232 30.7459 45.3602 30.4126 46.0492Z" fill="#090940"/>
<path fill-rule="evenodd" clip-rule="evenodd" d="M42.5165 38.833C42.555 38.891 42.6447 39.031 42.8455 39.308C42.1341 40.216 41.2055 40.22 36.722 44.08C34.1726 46.274 32.7477 47.639 30.8534 50.322L30.4653 49.886C34.085 42.424 37.9348 40.801 41.6207 39.233C42.2046 38.985 42.4225 38.855 42.4902 38.827C42.4895 38.822 42.4881 38.818 42.4881 38.815C42.4866 38.794 42.488 38.791 42.508 38.821C42.5165 38.82 42.518 38.824 42.5165 38.833Z" fill="#090940"/>
<path fill-rule="evenodd" clip-rule="evenodd" d="M32.2635 53.2463L31.8198 52.9344C31.9124 52.5914 32.4814 50.0174 34.7794 47.8704C36.6886 46.0864 39.0336 45.7793 40.1488 45.0883L40.2571 45.2553C40.2962 45.3053 40.126 45.0224 40.1652 45.0724C40.2869 45.2304 40.3859 45.4203 40.5077 45.5783C39.9416 46.3463 39.8568 46.1773 35.3441 49.6643C33.1059 51.3933 32.4657 52.8613 32.2635 53.2463Z" fill="#090940"/>
<path fill-rule="evenodd" clip-rule="evenodd" d="M33.7483 53.2531L33.5261 52.6291C36.1909 50.0901 36.1567 49.843 37.7369 49.08C38.7104 48.61 40.5469 48.0361 44.2991 46.9351L44.4558 47.597C41.1309 49.719 40.4095 50.1591 38.1243 50.9261C36.24 51.5581 36.3219 51.8871 33.7483 53.2531Z" fill="#090940"/>
<path fill-rule="evenodd" clip-rule="evenodd" d="M32.1709 61.1163L31.7002 60.8943C31.8255 60.2163 32.1965 57.7303 36.314 54.1643C40.1937 50.8053 43.0479 51.2373 44.5191 51.1133L44.6615 51.7823C43.6076 52.2383 41.7653 52.2193 38.7944 54.5143C35.5791 56.9983 33.0233 58.5283 32.1709 61.1163Z" fill="#090940"/>
<path fill-rule="evenodd" clip-rule="evenodd" d="M33.1744 63.641L32.8191 63.154C33.2001 62.028 33.9101 59.1269 36.5841 56.6639C39.3279 54.1369 43.3036 53.9859 43.9175 53.9399L43.9873 54.6299C43.4525 54.8279 40.4238 55.767 36.9686 58.614C34.3701 60.753 33.5369 63.105 33.1744 63.641Z" fill="#090940"/>
<path fill-rule="evenodd" clip-rule="evenodd" d="M33.6001 68.4193L33.2483 67.9263C34.6953 65.4633 36.564 62.2123 37.123 61.7483C39.1176 60.0923 41.2126 59.4363 41.5865 59.3193C44.5283 58.3983 44.5497 58.4713 44.8416 58.2173L45.1913 58.7133C44.9435 59.0713 44.9256 59.1503 41.9091 60.8003C39.8945 61.9013 39.9451 62.0583 37.8828 63.3593C37.4747 63.6173 37.5687 63.7943 33.6001 68.4193Z" fill="#090940"/>
<path fill-rule="evenodd" clip-rule="evenodd" d="M34.5574 70.9581L34.2056 70.4651C35.4518 67.6751 35.5593 66.5771 36.0535 65.8081C36.9031 64.4841 38.6122 63.8821 38.7368 63.8291L38.959 64.4531C38.7945 64.6451 37.4229 66.2361 37.0854 67.1351C36.6246 68.3631 36.1931 69.3521 34.5574 70.9581Z" fill="#090940"/>
<path fill-rule="evenodd" clip-rule="evenodd" d="M35.1881 71.9241L35.1867 71.9201C35.1525 71.8291 35.8198 70.4241 37.5873 69.0151C39.6645 67.3591 41.8671 66.1801 42.884 65.6211L43.1062 66.2451C42.9502 66.3851 36.8103 71.8551 36.3546 72.7581C35.5919 74.2691 33.7923 75.8221 32.794 77.7371L32.3489 77.4231C33.0525 75.2951 34.2894 73.6681 35.1881 71.9241ZM35.218 71.9461L35.2444 71.9701C35.2394 71.9571 35.2287 71.9521 35.218 71.9461Z" fill="#090940"/>
<path fill-rule="evenodd" clip-rule="evenodd" d="M33.1979 81.3742L32.7998 80.9572C34.1272 77.2822 35.3919 73.0822 40.3633 71.5762L40.5228 72.2372C38.8878 73.4052 38.0895 74.3462 36.777 76.0792C34.7987 78.6932 34.8692 78.7872 33.1979 81.3742Z" fill="#090940"/>
<path fill-rule="evenodd" clip-rule="evenodd" d="M37.1573 81.143C36.5193 82.55 35.8086 83.589 34.0254 85.593L33.675 85.099C36.0293 80.751 35.7808 80.524 36.0948 79.947C36.4196 79.348 37.6209 77.694 39.2844 76.294C40.3391 75.406 40.4395 75.654 41.4379 74.645L41.7876 75.141C41.1039 76.299 41.0078 76.152 40.1952 77.13C39.142 78.399 39.1335 78.629 37.1595 81.145L37.1573 81.143Z" fill="#090940"/>
<path fill-rule="evenodd" clip-rule="evenodd" d="M34.1628 90.766L33.749 90.38C35.075 86.416 36.0179 82.989 40.5911 80.453C40.6281 80.432 41.0497 80.199 41.0583 80.212C41.0746 80.238 41.1793 80.077 41.2242 80.022L41.5781 80.512C41.1629 81.392 40.5989 81.182 37.9819 84.767C35.8405 87.701 35.9167 87.798 34.1628 90.766Z" fill="#090940"/>
<path fill-rule="evenodd" clip-rule="evenodd" d="M35.5606 93.1182L35.1162 92.8062C36.0227 89.0942 36.6352 88.1702 37.6535 86.0932C38.1271 85.1282 38.6996 84.9102 38.815 84.8622C39.5677 84.5502 39.7294 84.8972 40.3276 83.8452L40.7712 84.1582C40.1609 86.4602 39.2928 85.5622 38.8335 86.8472C38.4383 87.9532 38.4831 87.9962 37.5467 89.6502C36.7627 91.0352 36.7085 90.9712 35.5606 93.1182Z" fill="#090940"/>
<path fill-rule="evenodd" clip-rule="evenodd" d="M40.6629 91.331C39.6596 92.668 39.473 94.19 37.645 96.895C37.0774 97.735 35.9929 99.269 35.9815 99.248C35.9316 99.153 35.9216 99.023 35.8689 98.932C35.8162 98.841 35.7258 98.805 35.6738 98.714C36.7719 95.348 37.2341 94.394 38.1962 93.012C39.3726 91.322 40.2328 90.827 40.4379 90.709L40.6629 91.331Z" fill="#090940"/>
<path fill-rule="evenodd" clip-rule="evenodd" d="M39.3918 99.652L39.3954 99.66C39.3213 99.733 39.3285 99.753 38.4155 100.325L38.0039 99.9351C38.0338 99.4791 38.0651 98.6181 38.5116 98.0991C38.7459 97.8261 38.7972 98.0091 39.1241 97.8301C39.3092 97.7281 39.4758 97.581 39.4773 97.582C39.6311 97.669 39.7664 97.8121 39.9195 97.9001C39.8917 98.6851 39.8889 99.037 39.3918 99.652Z" fill="#090940"/>
<path fill-rule="evenodd" clip-rule="evenodd" d="M67.5827 117.224L67.3228 116.645C69.0197 115.07 72.3069 115.909 74.1591 117.144C77.3858 119.296 78.2866 122.85 78.454 123.511L78.0053 123.787C77.155 121.84 76.0498 120.475 73.5731 118.925C69.4129 116.319 67.9758 117.024 67.5827 117.224Z" fill="#090940"/>
<path fill-rule="evenodd" clip-rule="evenodd" d="M57.942 114.976L57.8345 114.306C59.6789 113.598 65.9405 111.204 73.071 114.16C76.0997 115.415 77.1586 117.658 79.327 121.855L78.9474 122.288C75.9188 117.641 75.332 116.509 71.7094 115.572C65.2719 113.907 61.3438 114.233 57.942 114.976Z" fill="#090940"/>
<path fill-rule="evenodd" clip-rule="evenodd" d="M46.5858 116.098L46.4675 115.431C50.914 113.53 64.5035 105.185 74.1961 109.55C78.1121 111.313 79.5463 114.976 79.6225 115.14L79.2187 115.529C76.3688 110.421 70.8648 106.862 50.6719 114.596C47.6127 115.768 47.4396 115.83 46.5858 116.098Z" fill="#090940"/>
<path fill-rule="evenodd" clip-rule="evenodd" d="M51.3812 111.099L51.238 110.442C51.4823 110.323 55.5364 108.151 63.9501 106.267C68.8395 105.172 72.2221 106.264 72.9221 106.49C76.4728 107.636 77.9497 109.907 78.2417 110.3L77.9148 110.812C75.1974 107.799 71.4338 106.938 65.1051 108.029C64.9684 108.052 58.8093 109.189 56.0861 109.797C53.3544 110.406 51.7529 110.969 51.3812 111.099Z" fill="#090940"/>
<path fill-rule="evenodd" clip-rule="evenodd" d="M52.8103 106.396L52.6821 105.733C53.5644 105.361 57.4426 103.623 65.5972 102.415C72.1166 101.449 78.0336 104.065 81.2083 109.438L80.8992 109.97C78.9565 107.288 75.3881 103.876 67.7107 104.187C67.146 104.21 65.6805 104.27 60.6678 104.909C55.386 105.583 53.7133 106.135 52.8103 106.396Z" fill="#090940"/>
<path fill-rule="evenodd" clip-rule="evenodd" d="M7.36499 111.833L7.7111 111.332C11.2005 114.851 11.204 114.927 13.5996 119.73L13.2357 120.206C9.77482 116.35 9.73849 116.192 7.36499 111.833Z" fill="#090940"/>
<path fill-rule="evenodd" clip-rule="evenodd" d="M7.94971 109.126L8.33641 108.687C9.17529 109.899 9.42881 110.103 11.5666 112.263C16.8698 117.622 18.2199 119.641 22.1551 124.689L21.8453 125.234C18.3453 121.819 15.0496 118.927 10.2541 112.607C8.51586 110.316 8.40404 110.013 7.94971 109.126Z" fill="#090940"/>
<path fill-rule="evenodd" clip-rule="evenodd" d="M7.80444 103.668L8.14199 103.155C11.0304 106.682 14.2826 110.462 21.6054 117.935C34.4022 130.994 43.4824 139.752 45.4059 141.607L45.1374 142.194C33.987 132.724 20.1647 120.615 7.80444 103.668Z" fill="#090940"/>
<path fill-rule="evenodd" clip-rule="evenodd" d="M30.0212 123.006C26.3645 119.672 22.6928 115.816 19.2732 111.372C19.2717 111.371 18.6073 110.752 18.8224 109.986C18.9634 109.48 19.4064 109.246 19.756 109.524C27.3266 115.544 31.5708 119.91 41.1567 127.88C42.2683 128.804 44.4794 130.511 48.641 132.574C52.8247 134.648 55.0266 135.375 55.6504 136.502L55.236 136.887C54.2305 135.384 46.6934 133.637 40.7287 128.925C32.822 122.678 31.0659 120.877 26.0276 116.696C30.4641 121.286 37.3682 127.561 46.7803 133.544C48.3946 134.52 49.8225 135.381 50.9747 136.091C51.6619 136.514 51.2574 138.028 50.5125 137.642C49.8424 137.295 46.1023 135.192 42.5488 132.796C41.1353 131.842 39.6584 130.804 38.1401 129.677C35.7574 128.101 33.3112 126.454 31.2211 124.989C25.0228 120.645 22.9078 118.792 21.3419 117.423L21.6004 116.827C23.9668 118.783 26.8971 120.896 30.0212 123.006Z" fill="#090940"/>
<path fill-rule="evenodd" clip-rule="evenodd" d="M41.4229 125.851L41.3303 125.169C42.2717 124.876 42.2888 125.135 47.3463 127.995C50.4604 129.756 51.409 130.42 57.6693 134.647L57.4884 135.297C53.9954 133.774 50.3493 132.17 47.0921 129.851C42.5445 126.613 42.4391 125.798 41.4229 125.851Z" fill="#090940"/>
<path fill-rule="evenodd" clip-rule="evenodd" d="M46.8364 125.293L47.0714 124.678C52.8133 128.029 52.8332 127.956 54.1642 128.83C56.8503 130.594 59.7379 133.224 59.9601 133.419L59.7344 134.041C52.2742 129.883 52.1446 130.174 46.8364 125.293Z" fill="#090940"/>
<path fill-rule="evenodd" clip-rule="evenodd" d="M50.5403 124.846L50.8166 124.265C52.8347 125.698 52.8468 125.659 55.7274 127.329C58.0425 128.671 59.7807 130.055 62.5238 132.339L62.3123 132.97C58.3209 130.996 56.8404 130.287 55.1548 129.076C52.5691 127.219 51.3229 125.718 50.5403 124.846Z" fill="#090940"/>
<path fill-rule="evenodd" clip-rule="evenodd" d="M54.553 124.458L54.7061 123.794C55.2153 123.951 58.2496 125.194 59.7621 125.95C61.4712 126.805 64.3496 128.91 65.227 129.532L65.0539 130.187C61.5645 128.959 60.5027 128.596 58.3158 127.225C56.8916 126.332 55.065 124.816 54.553 124.458Z" fill="#090940"/>
<path fill-rule="evenodd" clip-rule="evenodd" d="M58.749 124.792L58.9035 124.128C60.5421 124.499 61.913 124.675 63.6057 125.762C64.8832 126.582 65.9749 127.613 66.1701 127.798L65.9635 128.433C64.0657 127.766 64.0536 127.849 62.7832 127.365C61.3767 126.829 59.2888 125.187 58.749 124.792Z" fill="#090940"/>
<path fill-rule="evenodd" clip-rule="evenodd" d="M12.7102 100.191L13.0656 99.7026C15.3586 102.355 15.647 102.562 18.7226 105.627C20.4631 107.361 21.584 108.71 24.6169 111.397L24.3769 112.008C18.4357 108.681 15.8535 105.468 12.7102 100.191Z" fill="#090940"/>
<path fill-rule="evenodd" clip-rule="evenodd" d="M14.2634 97.16L14.6138 96.666C17.8981 100.663 18.9435 101.689 21.8482 104.786C23.7254 106.788 24.4603 107.698 29.9849 113.754L29.7065 114.333C21.7236 107.799 18.9136 104.59 14.2634 97.16Z" fill="#090940"/>
<path fill-rule="evenodd" clip-rule="evenodd" d="M15.2019 94.9308L15.5273 94.4028C16.3427 95.2428 18.8672 97.7329 21.7292 101.695C23.8642 104.651 24.2152 105.197 27.4938 109.1L27.2061 109.669C24.2209 107.182 22.338 105.371 20.4288 102.7C19.2581 101.062 18.7383 100.045 15.2019 94.9308Z" fill="#090940"/>
<path fill-rule="evenodd" clip-rule="evenodd" d="M17.9692 95.5367L18.2804 94.9927C23.8613 100.416 23.9639 101.346 31.8684 111.258L31.5665 111.812C23.8101 104.682 24.2167 103.786 17.9692 95.5367Z" fill="#090940"/>
<path fill-rule="evenodd" clip-rule="evenodd" d="M22.5261 96.9238L22.8729 96.4238C27.0089 101.037 27.2546 101.217 31.9333 107.994L31.6142 108.529C26.5005 103.653 26.4941 103.579 22.5261 96.9238Z" fill="#090940"/>
<path fill-rule="evenodd" clip-rule="evenodd" d="M22.0684 90.8978L22.3867 90.3618C24.7695 92.0388 24.825 92.0318 26.6495 95.1298L26.3496 95.6858C24.0046 94.1818 23.707 93.9718 22.0684 90.8978Z" fill="#090940"/>
<path fill-rule="evenodd" clip-rule="evenodd" d="M28.8577 98.3788L29.208 97.8838C29.9579 98.3748 29.9942 98.2838 30.549 98.8668C31.0482 99.3908 31.494 101.015 31.5331 101.134L31.1828 101.628C31.098 101.573 29.9394 100.956 29.5641 100.257C29.1461 99.4808 29.2109 99.4298 28.8577 98.3788Z" fill="#090940"/>
<path fill-rule="evenodd" clip-rule="evenodd" d="M12.7949 79.4417L13.1325 78.9287C15.9916 81.4927 16.0899 81.6127 18.1871 85.8437L17.8353 86.3367C14.9947 83.5507 14.8971 83.3657 12.7949 79.4417Z" fill="#090940"/>
<path fill-rule="evenodd" clip-rule="evenodd" d="M6.22583 74.1038L6.4309 73.4678C6.61818 73.5178 7.70345 73.8068 8.67336 74.6128C9.3983 75.2158 10.401 76.8948 10.5491 77.1268L10.2742 77.7078C10.0321 77.5908 8.56584 76.9498 7.8993 76.2798C7.29542 75.6738 6.92513 75.0038 6.22583 74.1038Z" fill="#090940"/>
<path fill-rule="evenodd" clip-rule="evenodd" d="M4.71948 69.9027L4.91246 69.2598C17.4657 75.6178 19.3643 82.2737 24.7465 88.0927L24.4716 88.6747C21.4949 86.1457 20.2743 84.0918 15.6164 79.2898C12.2772 75.8478 9.39171 73.1317 4.71948 69.9027Z" fill="#090940"/>
<path fill-rule="evenodd" clip-rule="evenodd" d="M4.42896 66.7789L4.67392 66.1719C8.04581 67.9219 8.35557 68.3499 11.5195 72.0029L11.2703 72.6069C7.84998 70.7569 7.52383 70.3059 4.42896 66.7789Z" fill="#090940"/>
<path fill-rule="evenodd" clip-rule="evenodd" d="M4.33716 63.4719L4.54014 62.8359C17.7514 70.3449 21.918 80.0439 28.1434 89.0599L27.8051 89.5709C24.1562 85.1519 20.2481 79.1039 14.5269 72.7139C9.75214 67.3809 6.03842 64.6989 4.33716 63.4719Z" fill="#090940"/>
<path fill-rule="evenodd" clip-rule="evenodd" d="M6.5769 61.5169L6.83613 60.9219C12.5552 64.6429 12.996 64.8389 16.8835 70.3139L16.5687 70.8549C11.1373 65.9329 10.9899 66.2379 6.5769 61.5169Z" fill="#090940"/>
<path fill-rule="evenodd" clip-rule="evenodd" d="M18.9526 74.1788L19.2624 73.6328C22.3644 76.0478 22.4606 76.1508 24.8882 80.4548L24.5571 80.9748C21.5405 78.2878 21.4251 78.0998 18.9526 74.1788Z" fill="#090940"/>
<path fill-rule="evenodd" clip-rule="evenodd" d="M5.98657 59.1949L6.25501 58.6079C14.7378 65.1509 15.5974 65.8949 22.5619 73.9809L22.2706 74.5469C13.4859 66.8259 12.1429 65.6059 5.98657 59.1949Z" fill="#090940"/>
<path fill-rule="evenodd" clip-rule="evenodd" d="M23.9575 76.2508L24.278 75.7178C26.4827 77.2818 26.5746 77.2498 28.1761 80.4518L27.8478 80.9768C25.5584 79.2988 25.4701 79.2148 23.9575 76.2508Z" fill="#090940"/>
<path fill-rule="evenodd" clip-rule="evenodd" d="M5.25513 55.7266L5.47306 55.0996C5.63898 55.2006 7.98041 56.4296 13.0329 61.0246C17.4239 65.0176 20.4347 68.2686 27.4427 76.4456L27.1443 77.0036C16.7367 67.1106 16.7673 67.0506 12.3251 62.4626C8.05949 58.0556 7.25263 57.3086 5.25513 55.7266Z" fill="#090940"/>
<path fill-rule="evenodd" clip-rule="evenodd" d="M4.4895 52.3518L4.72664 51.7378C12.6255 56.9358 14.3061 57.0138 23.8436 69.7448L23.5217 70.2768C11.1172 57.2118 10.811 57.8438 4.4895 52.3518Z" fill="#090940"/>
<path fill-rule="evenodd" clip-rule="evenodd" d="M4.60913 49.8599L4.79711 49.2139C8.61052 50.9909 12.0914 52.2869 16.3855 56.7779C17.8368 58.2959 18.1558 59.7259 23.2112 66.0809L22.9064 66.6309C18.0319 61.8609 16.5158 59.2569 16.0258 58.7899C14.4492 57.2849 12.8263 55.6859 10.5881 53.9429C8.44248 52.2729 7.17704 51.5629 4.60913 49.8599Z" fill="#090940"/>
<path fill-rule="evenodd" clip-rule="evenodd" d="M7.8479 49.377C7.88707 49.121 7.89209 49.126 7.92983 48.689C8.70106 48.932 15.7909 53.704 18.2022 55.915C21.8497 59.257 22.1544 59.431 24.9908 63.048L24.6818 63.595C21.0863 60.129 20.9979 60.333 17.1902 57.343C12.7829 53.882 9.9159 51.01 7.8479 49.377Z" fill="#090940"/>
<path fill-rule="evenodd" clip-rule="evenodd" d="M11.4841 48.9578L11.6465 48.2988C17.2822 50.2038 18.4722 50.9498 23.3716 57.9668L23.0483 58.4978C16.2817 51.9008 15.1629 51.3308 11.4841 48.9578Z" fill="#090940"/>
<path fill-rule="evenodd" clip-rule="evenodd" d="M25.1018 65.3436L25.4016 64.7876C26.0347 64.9576 26.0561 64.8616 26.514 65.1776C26.927 65.4626 27.2845 66.7426 27.3115 66.8176L27.011 67.3746C26.9519 67.3586 25.9777 67.2226 25.6708 66.7416C25.3297 66.2076 25.3895 66.1536 25.1018 65.3436Z" fill="#090940"/>
<path fill-rule="evenodd" clip-rule="evenodd" d="M25.3604 71.9317L25.6723 71.3877C27.0523 71.7747 27.1976 71.9287 27.4547 73.8877L27.0566 74.3047C26.9783 74.2527 26.306 73.7977 26.0959 73.6097C25.7306 73.2847 25.3767 71.9817 25.3604 71.9317Z" fill="#090940"/>
<path fill-rule="evenodd" clip-rule="evenodd" d="M-18.9273 120.754L-19.1587 120.136C-10.5634 112.79 -9.98301 112.556 0.0279849 109.359L0.168245 110.029C-6.56629 113.466 -6.58694 113.384 -9.70674 115.115C-12.2084 116.504 -14.1262 117.76 -18.9273 120.754Z" fill="#090940"/>
</g>
<defs>
<clipPath id="clip0_81_344">
<rect width="92" height="162" fill="white"/>
</clipPath>
</defs>
</svg>
