<svg width="141" height="162" viewBox="0 0 141 162" fill="none" xmlns="http://www.w3.org/2000/svg">
<g clip-path="url(#clip0_80_177)">
<path fill-rule="evenodd" clip-rule="evenodd" d="M59.6778 45.082L73.8013 54.1241L77.5399 52.957L76.2937 22.915C77.8725 22.239 79.484 21.5901 81.1276 20.9661C90.6807 17.3401 101.309 14.5761 112.727 12.4451C118.204 11.4231 123.863 10.546 129.673 9.79004H143.743V102.832H128.843L128.012 132.582C126.218 134.421 124.462 136.153 122.751 137.758C114.534 145.465 107.366 150.226 102.049 149.79L75.6706 132.582L67.7782 123.832L47.8388 119.749L31.8459 125.582L17.5145 126.749L10.0372 120.04V113.04L12.5297 102.54L21.2531 115.665L33.2994 103.999L38.2842 95.54L62.1702 86.4991L51.1622 77.165L21.4611 71.915L1.52173 52.3741V43.6241L8.58309 37.207L13.1528 34.29L17.7225 37.79L11.2834 48.582L13.9839 55.29L20.4221 55.582L59.6778 45.082Z" fill="#dfc7af"/>
<path fill-rule="evenodd" clip-rule="evenodd" d="M73.092 27.269L77.2864 26.625C80.9318 79.439 81.9295 98.057 82.2627 104.277C83.3409 124.392 90.9585 124.938 103.342 120.666C106.734 119.496 112.09 116.989 118.659 120.668C122.209 122.655 124.113 125.381 124.503 125.937L120.205 130.878C118.911 128.051 114.054 121.446 106.176 123.263C102.914 124.015 95.3465 127.376 89.688 125.771C79.8814 122.99 79.4869 107.49 79.0169 100.87C77.0799 73.57 73.1148 27.539 73.092 27.269Z" fill="#090940"/>
<path fill-rule="evenodd" clip-rule="evenodd" d="M31.1688 123.868C33.8186 122.704 40.0639 120.112 47.6687 118.747C48.0746 118.674 48.385 118.618 52.7753 119.15C56.4192 119.591 61.5757 120.395 67.5881 121.958C68.6228 122.227 68.6449 122.225 69.4724 123.144C74.025 128.202 84.7965 139.451 101.567 147.824C103.149 148.614 104.843 148.346 106.065 147.508C108.071 146.13 116.954 140.041 117.719 139.396C119.831 137.62 124.896 131.109 125.492 130.343C127.173 128.182 127.166 125.387 127.168 124.812L127.279 103.173L131.465 103.108C131.917 124.781 132 124.784 131.872 126.298C131.802 127.124 131.393 131.953 128.331 135.434C122.394 142.185 122.429 142.241 121.325 143.345C121.168 143.502 120.146 144.539 118.78 145.419C107.791 152.499 107.826 152.624 106.579 153.176C102.874 154.817 100.037 152.906 98.4514 152.057C89.0642 147.029 78.4038 139.62 68.0289 128.318C67.2727 127.494 67.3332 127.405 67.0875 127.082C66.6695 127.022 66.6623 127.123 65.6931 126.881C64.7524 126.646 57.3806 124.742 48.2426 123.989C48.2376 123.989 43.9784 124.629 38.2316 126.628C33.7353 128.191 30.5414 129.79 30.1583 129.872C29.8991 129.927 18.5443 129.755 17.5345 129.74C17.1122 129.734 13.677 128.587 10.8306 124.915C9.10798 122.692 7.91165 119.884 7.78988 119.008C7.67166 118.153 8.05692 113.927 9.79663 107.52C10.7722 103.926 10.9168 103.853 11.2344 103.508C11.9444 102.736 12.9954 102.772 13.6777 103.594C13.761 103.694 13.8244 103.826 13.9091 103.925L22.0779 113.363C33.459 101.551 33.652 101.675 34.2758 100.286C34.2794 100.277 35.5811 97.228 35.6003 97.185C36.2683 95.698 37.1933 94.577 38.206 93.862C39.2549 93.122 39.2948 93.259 56.4441 85.626L57.6668 91.07C40.4171 98.681 40.3865 98.584 39.8552 99.021C39.0384 99.693 39.188 99.919 37.6569 103.298C37.3977 103.869 37.11 104.375 36.8608 104.759C35.7235 106.512 35.5078 106.343 24.2562 115.88L31.1688 123.868ZM19.594 119.079C18.8327 118.685 18.0715 118.29 17.3109 117.894C17.1315 117.8 16.9064 117.509 16.8751 117.469C16.3909 116.843 16.4991 116.629 13.541 108.985C12.6017 112.339 12.0448 114.847 11.6816 117.935C13.1407 121.185 14.9403 123.091 17.9347 124.409L17.9333 124.417C21.882 124.361 25.8315 124.518 29.7802 124.46C26.5528 122.934 23.3148 121.455 20.0996 119.882C20.054 119.86 19.8034 119.569 19.594 119.079Z" fill="#090940"/>
<path fill-rule="evenodd" clip-rule="evenodd" d="M20.2462 67.5532C20.5845 67.8472 20.9234 68.1412 21.2617 68.4352C22.0087 69.0822 22.6446 70.1002 23.4977 70.3872C23.5034 70.3892 40.1044 73.7092 47.7989 75.0092C49.8405 75.3542 49.8718 75.1212 51.7511 75.8962C52.5993 76.2462 53.6831 76.5372 56.0865 77.8372C56.2945 77.9492 61.3491 80.2872 64.3977 84.3392C67.2889 88.1812 67.2455 91.9032 67.2668 92.8862C61.6582 92.3512 61.6581 92.3892 59.7482 92.2102C59.442 92.1812 59.828 92.2042 60.1349 92.1832H59.796C60.6099 91.7232 58.1381 85.3492 50.8574 80.9232C50.8467 80.9172 50.8467 80.9172 49.869 80.4732C48.8813 80.0242 32.3295 77.0752 30.8027 76.8032C22.594 75.3412 22.5755 75.4282 22.1547 75.1812C21.6384 74.8782 11.3034 65.9752 10.3641 65.1652C9.59357 64.5022 1.47536 57.3912 0.881446 56.8602C0.0945519 56.1572 0.0803161 54.9762 0.0781797 54.7872C0.0674979 53.8962 -0.0485532 44.2422 0.0233711 43.6512C0.14372 42.6592 0.676364 42.1652 0.766091 42.0822C1.00679 41.8592 7.69931 35.7022 8.30248 35.1472C8.8209 34.6702 9.03026 34.6362 9.10005 34.6252C9.52803 34.5572 11.992 34.1652 14.4545 33.8222C14.5791 33.8042 15.329 33.7002 15.9628 34.3682C16.1401 34.5562 17.9766 36.4922 18.1632 36.7582C19.1801 38.2102 18.9067 40.0802 18.3412 41.0612L13.5957 49.0832L20.2462 67.5532ZM16.8942 64.6402C14.9459 61.3302 12.9804 58.0402 11.1132 54.6402C10.4054 53.3522 9.88978 51.8752 9.28947 50.4832C8.75822 49.2512 9.05378 47.7442 9.40912 47.0682C10.1533 45.6542 10.708 43.9852 11.6644 42.8522C12.3986 41.9832 13.2859 41.4172 14.1547 40.8142C13.6883 40.3472 13.2624 39.7452 12.7191 39.5292C10.3855 38.6042 9.59998 39.3362 9.37709 39.5432C7.35751 41.4262 5.3593 43.3532 3.33901 45.2352L3.52843 53.3582C6.73013 56.0792 9.96814 58.7142 13.1698 61.4362C14.4153 62.4952 15.6558 63.5652 16.8942 64.6402Z" fill="#090940"/>
<path fill-rule="evenodd" clip-rule="evenodd" d="M14.5557 59.0812V52.6712C16.4342 52.3352 18.3577 53.1852 20.2362 52.8492C20.3302 52.8322 39.4215 47.7382 44.699 46.3092C52.7567 44.1292 52.7268 43.8032 55.8786 43.5592C66.3069 42.7522 72.4055 50.6762 75.1529 54.4922L73.1668 57.2622C69.0514 51.5542 63.4884 46.2012 54.4088 47.9092C53.8213 48.0202 36.0219 53.8582 34.4239 54.3822C29.8449 55.8852 25.3258 57.8062 20.6878 58.9032C18.6717 59.3792 16.5717 58.6042 14.5557 59.0812Z" fill="#090940"/>
<path fill-rule="evenodd" clip-rule="evenodd" d="M75.9946 26.921C74.8175 26.898 74.8025 27.006 73.4146 27.205C73.379 24.979 73.3099 16.049 111.732 10.119C117.566 9.21799 123.005 8.59099 126.453 8.22299C127.472 8.11399 127.471 8.10699 127.56 8.10599C135.653 8.00199 135.651 8.104 143.743 8V12.863C138.436 12.939 133.127 12.912 127.82 12.989C127.119 12.999 121.036 13.77 120.447 13.844C120.232 13.871 86.0804 17.698 77.844 26.057C77.1725 26.739 76.9816 27.178 76.9289 27.3C76.4497 27.034 76.4205 27.035 75.9946 26.921Z" fill="#090940"/>
<path fill-rule="evenodd" clip-rule="evenodd" d="M129.88 99.6072C132.218 99.7092 140.556 99.8102 144.078 99.8602L144.14 104.887C140.621 105.098 130.24 105.743 129.567 105.686C128.774 105.619 103.916 102.985 98.2001 109.865C97.3577 110.879 97.4823 111.774 97.5143 112.496L91.1124 112.928C91.1074 109.537 91.3694 101.901 101.535 99.1012C110.792 96.5502 124.93 98.8352 129.88 99.6072Z" fill="#090940"/>
<path fill-rule="evenodd" clip-rule="evenodd" d="M78.2071 32.4512C78.2335 32.4792 78.2477 32.4952 78.2256 32.4792C78.1964 32.4592 78.1993 32.4602 77.8674 32.2212C78.3474 31.1222 81.9707 27.8622 83.8756 26.4632C85.7855 25.0602 91.0324 24.3662 92.1426 24.1602L92.2402 24.7072C91.2546 25.1712 85.5434 27.5542 84.5008 28.2362C79.5815 31.4592 78.9833 31.6982 78.2306 32.4752L78.2071 32.4512ZM78.1786 32.4222L78.0882 32.3302C78.1081 32.3522 78.1459 32.3892 78.1786 32.4222Z" fill="#090940"/>
<path fill-rule="evenodd" clip-rule="evenodd" d="M78.8266 36.429L78.5439 36.0309C80.9153 32.2909 84.3506 29.778 85.2521 28.588C87.0531 26.212 91.3315 26.6769 94.5026 26.5439L94.5595 27.102C91.8691 27.857 87.5181 28.3929 86.2562 30.0009C84.8697 31.7669 81.5961 33.364 78.8266 36.429Z" fill="#090940"/>
<path fill-rule="evenodd" clip-rule="evenodd" d="M79.125 40.6379L78.8843 40.188C82.0197 35.665 85.6566 30.537 93.0199 30.127L93.064 30.687C90.1443 31.624 88.7593 32.541 85.5718 34.935C81.8887 37.702 80.2615 39.5489 79.125 40.6379Z" fill="#090940"/>
<path fill-rule="evenodd" clip-rule="evenodd" d="M79.4126 46.0492L79.0544 45.7962C79.9539 42.9482 81.1481 41.4602 83.8791 39.2112C84.7749 38.4732 84.7187 38.3602 85.0797 38.0212C86.8094 36.3972 92.186 35.7972 93.5568 35.6392L93.6237 36.1952C90.8329 37.2392 86.4776 38.9002 85.732 39.8442C85.0697 40.6812 83.4617 41.4482 81.9926 42.6902C80.2957 44.1232 79.7459 45.3602 79.4126 46.0492Z" fill="#090940"/>
<path fill-rule="evenodd" clip-rule="evenodd" d="M91.5165 38.833C91.555 38.891 91.6447 39.031 91.8455 39.308C91.1341 40.216 90.2055 40.22 85.722 44.08C83.1726 46.274 81.7477 47.639 79.8534 50.322L79.4653 49.886C83.085 42.424 86.9348 40.801 90.6207 39.233C91.2046 38.985 91.4225 38.855 91.4902 38.827C91.4895 38.822 91.4881 38.818 91.4881 38.815C91.4866 38.794 91.488 38.791 91.508 38.821C91.5165 38.82 91.518 38.824 91.5165 38.833Z" fill="#090940"/>
<path fill-rule="evenodd" clip-rule="evenodd" d="M81.2635 53.2463L80.8198 52.9344C80.9124 52.5914 81.4814 50.0174 83.7794 47.8704C85.6886 46.0864 88.0336 45.7793 89.1488 45.0883L89.2571 45.2553C89.2962 45.3053 89.126 45.0224 89.1652 45.0724C89.2869 45.2304 89.3859 45.4203 89.5077 45.5783C88.9416 46.3463 88.8568 46.1773 84.3441 49.6643C82.1059 51.3933 81.4657 52.8613 81.2635 53.2463Z" fill="#090940"/>
<path fill-rule="evenodd" clip-rule="evenodd" d="M82.7483 53.2531L82.5261 52.6291C85.1909 50.0901 85.1567 49.843 86.7369 49.08C87.7104 48.61 89.5469 48.0361 93.2991 46.9351L93.4558 47.597C90.1309 49.719 89.4095 50.1591 87.1243 50.9261C85.24 51.5581 85.3219 51.8871 82.7483 53.2531Z" fill="#090940"/>
<path fill-rule="evenodd" clip-rule="evenodd" d="M81.1709 61.1163L80.7002 60.8943C80.8255 60.2163 81.1965 57.7303 85.314 54.1643C89.1937 50.8053 92.0479 51.2373 93.5191 51.1133L93.6615 51.7823C92.6076 52.2383 90.7653 52.2193 87.7944 54.5143C84.5791 56.9983 82.0233 58.5283 81.1709 61.1163Z" fill="#090940"/>
<path fill-rule="evenodd" clip-rule="evenodd" d="M82.1744 63.641L81.8191 63.154C82.2001 62.028 82.9101 59.1269 85.5841 56.6639C88.3279 54.1369 92.3036 53.9859 92.9175 53.9399L92.9873 54.6299C92.4525 54.8279 89.4238 55.767 85.9686 58.614C83.3701 60.753 82.5369 63.105 82.1744 63.641Z" fill="#090940"/>
<path fill-rule="evenodd" clip-rule="evenodd" d="M82.6001 68.4193L82.2483 67.9263C83.6953 65.4633 85.564 62.2123 86.123 61.7483C88.1176 60.0923 90.2126 59.4363 90.5865 59.3193C93.5283 58.3983 93.5497 58.4713 93.8416 58.2173L94.1913 58.7133C93.9435 59.0713 93.9256 59.1503 90.9091 60.8003C88.8945 61.9013 88.9451 62.0583 86.8828 63.3593C86.4747 63.6173 86.5687 63.7943 82.6001 68.4193Z" fill="#090940"/>
<path fill-rule="evenodd" clip-rule="evenodd" d="M83.5574 70.9581L83.2056 70.4651C84.4518 67.6751 84.5593 66.5771 85.0535 65.8081C85.9031 64.4841 87.6122 63.8821 87.7368 63.8291L87.959 64.4531C87.7945 64.6451 86.4229 66.2361 86.0854 67.1351C85.6246 68.3631 85.1931 69.3521 83.5574 70.9581Z" fill="#090940"/>
<path fill-rule="evenodd" clip-rule="evenodd" d="M84.1881 71.9241L84.1867 71.9201C84.1525 71.8291 84.8198 70.4241 86.5873 69.0151C88.6645 67.3591 90.8671 66.1801 91.884 65.6211L92.1062 66.2451C91.9502 66.3851 85.8103 71.8551 85.3546 72.7581C84.5919 74.2691 82.7923 75.8221 81.794 77.7371L81.3489 77.4231C82.0525 75.2951 83.2894 73.6681 84.1881 71.9241ZM84.218 71.9461L84.2444 71.9701C84.2394 71.9571 84.2287 71.9521 84.218 71.9461Z" fill="#090940"/>
<path fill-rule="evenodd" clip-rule="evenodd" d="M82.1979 81.3742L81.7998 80.9572C83.1272 77.2822 84.3919 73.0822 89.3633 71.5762L89.5228 72.2372C87.8878 73.4052 87.0895 74.3462 85.777 76.0792C83.7987 78.6932 83.8692 78.7872 82.1979 81.3742Z" fill="#090940"/>
<path fill-rule="evenodd" clip-rule="evenodd" d="M86.1573 81.143C85.5193 82.55 84.8086 83.589 83.0254 85.593L82.675 85.099C85.0293 80.751 84.7808 80.524 85.0948 79.947C85.4196 79.348 86.6209 77.694 88.2844 76.294C89.3391 75.406 89.4395 75.654 90.4379 74.645L90.7876 75.141C90.1039 76.299 90.0078 76.152 89.1952 77.13C88.142 78.399 88.1335 78.629 86.1595 81.145L86.1573 81.143Z" fill="#090940"/>
<path fill-rule="evenodd" clip-rule="evenodd" d="M83.1628 90.766L82.749 90.38C84.075 86.416 85.0179 82.989 89.5911 80.453C89.6281 80.432 90.0497 80.199 90.0583 80.212C90.0746 80.238 90.1793 80.077 90.2242 80.022L90.5781 80.512C90.1629 81.392 89.5989 81.182 86.9819 84.767C84.8405 87.701 84.9167 87.798 83.1628 90.766Z" fill="#090940"/>
<path fill-rule="evenodd" clip-rule="evenodd" d="M84.5606 93.1182L84.1162 92.8062C85.0227 89.0942 85.6352 88.1702 86.6535 86.0932C87.1271 85.1282 87.6996 84.9102 87.815 84.8622C88.5677 84.5502 88.7294 84.8972 89.3276 83.8452L89.7712 84.1582C89.1609 86.4602 88.2928 85.5622 87.8335 86.8472C87.4383 87.9532 87.4831 87.9962 86.5467 89.6502C85.7627 91.0352 85.7085 90.9712 84.5606 93.1182Z" fill="#090940"/>
<path fill-rule="evenodd" clip-rule="evenodd" d="M89.6629 91.331C88.6596 92.668 88.473 94.19 86.645 96.895C86.0774 97.735 84.9929 99.269 84.9815 99.248C84.9316 99.153 84.9216 99.023 84.8689 98.932C84.8162 98.841 84.7258 98.805 84.6738 98.714C85.7719 95.348 86.2341 94.394 87.1962 93.012C88.3726 91.322 89.2328 90.827 89.4379 90.709L89.6629 91.331Z" fill="#090940"/>
<path fill-rule="evenodd" clip-rule="evenodd" d="M88.3918 99.652L88.3954 99.66C88.3213 99.733 88.3285 99.753 87.4155 100.325L87.0039 99.9351C87.0338 99.4791 87.0651 98.6181 87.5116 98.0991C87.7459 97.8261 87.7972 98.0091 88.1241 97.8301C88.3092 97.7281 88.4758 97.581 88.4773 97.582C88.6311 97.669 88.7664 97.8121 88.9195 97.9001C88.8917 98.6851 88.8889 99.037 88.3918 99.652Z" fill="#090940"/>
<path fill-rule="evenodd" clip-rule="evenodd" d="M116.583 117.224L116.323 116.645C118.02 115.07 121.307 115.909 123.159 117.144C126.386 119.296 127.287 122.85 127.454 123.511L127.005 123.787C126.155 121.84 125.05 120.475 122.573 118.925C118.413 116.319 116.976 117.024 116.583 117.224Z" fill="#090940"/>
<path fill-rule="evenodd" clip-rule="evenodd" d="M106.942 114.976L106.834 114.306C108.679 113.598 114.941 111.204 122.071 114.16C125.1 115.415 126.159 117.658 128.327 121.855L127.947 122.288C124.919 117.641 124.332 116.509 120.709 115.572C114.272 113.907 110.344 114.233 106.942 114.976Z" fill="#090940"/>
<path fill-rule="evenodd" clip-rule="evenodd" d="M95.5858 116.098L95.4675 115.431C99.914 113.53 113.503 105.185 123.196 109.55C127.112 111.313 128.546 114.976 128.623 115.14L128.219 115.529C125.369 110.421 119.865 106.862 99.6719 114.596C96.6127 115.768 96.4396 115.83 95.5858 116.098Z" fill="#090940"/>
<path fill-rule="evenodd" clip-rule="evenodd" d="M100.381 111.099L100.238 110.442C100.482 110.323 104.536 108.151 112.95 106.267C117.84 105.172 121.222 106.264 121.922 106.49C125.473 107.636 126.95 109.907 127.242 110.3L126.915 110.812C124.197 107.799 120.434 106.938 114.105 108.029C113.968 108.052 107.809 109.189 105.086 109.797C102.354 110.406 100.753 110.969 100.381 111.099Z" fill="#090940"/>
<path fill-rule="evenodd" clip-rule="evenodd" d="M101.81 106.396L101.682 105.733C102.564 105.361 106.443 103.623 114.597 102.415C121.117 101.449 127.034 104.065 130.208 109.438L129.899 109.97C127.957 107.288 124.388 103.876 116.711 104.187C116.146 104.21 114.68 104.27 109.668 104.909C104.386 105.583 102.713 106.135 101.81 106.396Z" fill="#090940"/>
<path fill-rule="evenodd" clip-rule="evenodd" d="M56.3647 111.833L56.7109 111.332C60.2002 114.851 60.2038 114.927 62.5994 119.73L62.2355 120.206C58.7746 116.35 58.7382 116.192 56.3647 111.833Z" fill="#090940"/>
<path fill-rule="evenodd" clip-rule="evenodd" d="M56.9495 109.126L57.3362 108.687C58.175 109.899 58.4286 110.103 60.5664 112.263C65.8695 117.622 67.2197 119.641 71.1549 124.689L70.8451 125.234C67.345 121.819 64.0493 118.927 59.2539 112.607C57.5156 110.316 57.4038 110.013 56.9495 109.126Z" fill="#090940"/>
<path fill-rule="evenodd" clip-rule="evenodd" d="M56.8042 103.668L57.1417 103.155C60.0301 106.682 63.2824 110.462 70.6051 117.935C83.4019 130.994 92.4822 139.752 94.4056 141.607L94.1371 142.194C82.9868 132.724 69.1645 120.615 56.8042 103.668Z" fill="#090940"/>
<path fill-rule="evenodd" clip-rule="evenodd" d="M79.021 123.006C75.3642 119.672 71.6925 115.816 68.2729 111.372C68.2715 111.371 67.6071 110.752 67.8221 109.986C67.9631 109.48 68.4061 109.246 68.7558 109.524C76.3263 115.544 80.5706 119.91 90.1564 127.88C91.268 128.804 93.4791 130.511 97.6408 132.574C101.824 134.648 104.026 135.375 104.65 136.502L104.236 136.887C103.23 135.384 95.6932 133.637 89.7284 128.925C81.8218 122.678 80.0656 120.877 75.0274 116.696C79.4639 121.286 86.3679 127.561 95.78 133.544C97.3944 134.52 98.8222 135.381 99.9744 136.091C100.662 136.514 100.257 138.028 99.5123 137.642C98.8422 137.295 95.1021 135.192 91.5486 132.796C90.135 131.842 88.6581 130.804 87.1399 129.677C84.7571 128.101 82.311 126.454 80.2209 124.989C74.0226 120.645 71.9076 118.792 70.3416 117.423L70.6001 116.827C72.9665 118.783 75.8969 120.896 79.021 123.006Z" fill="#090940"/>
<path fill-rule="evenodd" clip-rule="evenodd" d="M90.4227 125.851L90.3301 125.169C91.2715 124.876 91.2886 125.135 96.3461 127.995C99.4602 129.756 100.409 130.42 106.669 134.647L106.488 135.297C102.995 133.774 99.3491 132.17 96.0919 129.851C91.5442 126.613 91.4389 125.798 90.4227 125.851Z" fill="#090940"/>
<path fill-rule="evenodd" clip-rule="evenodd" d="M95.8362 125.293L96.0712 124.678C101.813 128.029 101.833 127.956 103.164 128.83C105.85 130.594 108.738 133.224 108.96 133.419L108.734 134.041C101.274 129.883 101.144 130.174 95.8362 125.293Z" fill="#090940"/>
<path fill-rule="evenodd" clip-rule="evenodd" d="M99.54 124.846L99.8163 124.265C101.834 125.698 101.847 125.659 104.727 127.329C107.042 128.671 108.78 130.055 111.524 132.339L111.312 132.97C107.321 130.996 105.84 130.287 104.155 129.076C101.569 127.219 100.323 125.718 99.54 124.846Z" fill="#090940"/>
<path fill-rule="evenodd" clip-rule="evenodd" d="M103.553 124.458L103.706 123.794C104.215 123.951 107.249 125.194 108.762 125.95C110.471 126.805 113.349 128.91 114.227 129.532L114.054 130.187C110.564 128.959 109.503 128.596 107.316 127.225C105.891 126.332 104.065 124.816 103.553 124.458Z" fill="#090940"/>
<path fill-rule="evenodd" clip-rule="evenodd" d="M107.749 124.792L107.903 124.128C109.542 124.499 110.913 124.675 112.605 125.762C113.883 126.582 114.975 127.613 115.17 127.798L114.963 128.433C113.065 127.766 113.053 127.849 111.783 127.365C110.376 126.829 108.289 125.187 107.749 124.792Z" fill="#090940"/>
<path fill-rule="evenodd" clip-rule="evenodd" d="M61.71 100.191L62.0653 99.7026C64.3584 102.355 64.6467 102.562 67.7224 105.627C69.4628 107.361 70.5837 108.71 73.6167 111.397L73.3766 112.008C67.4354 108.681 64.8533 105.468 61.71 100.191Z" fill="#090940"/>
<path fill-rule="evenodd" clip-rule="evenodd" d="M63.2632 97.16L63.6136 96.666C66.8979 100.663 67.9432 101.689 70.848 104.786C72.7251 106.788 73.46 107.698 78.9847 113.754L78.7062 114.333C70.7233 107.799 67.9133 104.59 63.2632 97.16Z" fill="#090940"/>
<path fill-rule="evenodd" clip-rule="evenodd" d="M64.2017 94.9308L64.5271 94.4028C65.3425 95.2428 67.867 97.7329 70.729 101.695C72.8639 104.651 73.215 105.197 76.4936 109.1L76.2059 109.669C73.2207 107.182 71.3378 105.371 69.4286 102.7C68.2579 101.062 67.7381 100.045 64.2017 94.9308Z" fill="#090940"/>
<path fill-rule="evenodd" clip-rule="evenodd" d="M66.969 95.5367L67.2802 94.9927C72.8611 100.416 72.9636 101.346 80.8682 111.258L80.5662 111.812C72.8098 104.682 73.2164 103.786 66.969 95.5367Z" fill="#090940"/>
<path fill-rule="evenodd" clip-rule="evenodd" d="M71.5259 96.9238L71.8727 96.4238C76.0087 101.037 76.2544 101.217 80.933 107.994L80.614 108.529C75.5002 103.653 75.4938 103.579 71.5259 96.9238Z" fill="#090940"/>
<path fill-rule="evenodd" clip-rule="evenodd" d="M71.0681 90.8978L71.3864 90.3618C73.7692 92.0388 73.8248 92.0318 75.6492 95.1298L75.3494 95.6858C73.0044 94.1818 72.7067 93.9718 71.0681 90.8978Z" fill="#090940"/>
<path fill-rule="evenodd" clip-rule="evenodd" d="M77.8574 98.3788L78.2078 97.8838C78.9577 98.3748 78.994 98.2838 79.5487 98.8668C80.0479 99.3908 80.4937 101.015 80.5329 101.134L80.1825 101.628C80.0978 101.573 78.9391 100.956 78.5638 100.257C78.1458 99.4808 78.2106 99.4298 77.8574 98.3788Z" fill="#090940"/>
<path fill-rule="evenodd" clip-rule="evenodd" d="M61.7947 79.4417L62.1322 78.9287C64.9914 81.4927 65.0897 81.6127 67.1869 85.8437L66.8351 86.3367C63.9944 83.5507 63.8969 83.3657 61.7947 79.4417Z" fill="#090940"/>
<path fill-rule="evenodd" clip-rule="evenodd" d="M55.2256 74.1038L55.4307 73.4678C55.6179 73.5178 56.7032 73.8068 57.6731 74.6128C58.3981 75.2158 59.4007 76.8948 59.5489 77.1268L59.274 77.7078C59.0319 77.5908 57.5656 76.9498 56.8991 76.2798C56.2952 75.6738 55.9249 75.0038 55.2256 74.1038Z" fill="#090940"/>
<path fill-rule="evenodd" clip-rule="evenodd" d="M53.7192 69.9027L53.9122 69.2598C66.4655 75.6178 68.364 82.2737 73.7463 88.0927L73.4713 88.6747C70.4947 86.1457 69.2741 84.0918 64.6161 79.2898C61.277 75.8478 58.3915 73.1317 53.7192 69.9027Z" fill="#090940"/>
<path fill-rule="evenodd" clip-rule="evenodd" d="M53.4287 66.7789L53.6737 66.1719C57.0456 67.9219 57.3553 68.3499 60.5193 72.0029L60.2701 72.6069C56.8497 70.7569 56.5236 70.3059 53.4287 66.7789Z" fill="#090940"/>
<path fill-rule="evenodd" clip-rule="evenodd" d="M53.3369 63.4719L53.5399 62.8359C66.7512 70.3449 70.9178 80.0439 77.1431 89.0599L76.8049 89.5709C73.156 85.1519 69.2479 79.1039 63.5267 72.7139C58.7519 67.3809 55.0382 64.6989 53.3369 63.4719Z" fill="#090940"/>
<path fill-rule="evenodd" clip-rule="evenodd" d="M55.5767 61.5169L55.8359 60.9219C61.5549 64.6429 61.9957 64.8389 65.8832 70.3139L65.5684 70.8549C60.1371 65.9329 59.9897 66.2379 55.5767 61.5169Z" fill="#090940"/>
<path fill-rule="evenodd" clip-rule="evenodd" d="M67.9524 74.1788L68.2622 73.6328C71.3642 76.0478 71.4603 76.1508 73.8879 80.4548L73.5568 80.9748C70.5403 78.2878 70.4249 78.0998 67.9524 74.1788Z" fill="#090940"/>
<path fill-rule="evenodd" clip-rule="evenodd" d="M54.9863 59.1949L55.2548 58.6079C63.7376 65.1509 64.5971 65.8949 71.5617 73.9809L71.2704 74.5469C62.4856 66.8259 61.1426 65.6059 54.9863 59.1949Z" fill="#090940"/>
<path fill-rule="evenodd" clip-rule="evenodd" d="M72.9573 76.2508L73.2777 75.7178C75.4825 77.2818 75.5743 77.2498 77.1759 80.4518L76.8476 80.9768C74.5581 79.2988 74.4698 79.2148 72.9573 76.2508Z" fill="#090940"/>
<path fill-rule="evenodd" clip-rule="evenodd" d="M54.2549 55.7266L54.4728 55.0996C54.6387 55.2006 56.9802 56.4296 62.0327 61.0246C66.4236 65.0176 69.4344 68.2686 76.4424 76.4456L76.1441 77.0036C65.7364 67.1106 65.7671 67.0506 61.3249 62.4626C57.0592 58.0556 56.2524 57.3086 54.2549 55.7266Z" fill="#090940"/>
<path fill-rule="evenodd" clip-rule="evenodd" d="M53.4893 52.3518L53.7264 51.7378C61.6252 56.9358 63.3059 57.0138 72.8433 69.7448L72.5214 70.2768C60.117 57.2118 59.8108 57.8438 53.4893 52.3518Z" fill="#090940"/>
<path fill-rule="evenodd" clip-rule="evenodd" d="M53.6089 49.8599L53.7969 49.2139C57.6103 50.9909 61.0911 52.2869 65.3852 56.7779C66.8365 58.2959 67.1556 59.7259 72.2109 66.0809L71.9061 66.6309C67.0316 61.8609 65.5155 59.2569 65.0256 58.7899C63.449 57.2849 61.8261 55.6859 59.5879 53.9429C57.4422 52.2729 56.1768 51.5629 53.6089 49.8599Z" fill="#090940"/>
<path fill-rule="evenodd" clip-rule="evenodd" d="M56.8477 49.377C56.8868 49.121 56.8918 49.126 56.9296 48.689C57.7008 48.932 64.7907 53.704 67.2019 55.915C70.8494 59.257 71.1542 59.431 73.9905 63.048L73.6815 63.595C70.086 60.129 69.9977 60.333 66.19 57.343C61.7827 53.882 58.9157 51.01 56.8477 49.377Z" fill="#090940"/>
<path fill-rule="evenodd" clip-rule="evenodd" d="M60.4839 48.9578L60.6463 48.2988C66.282 50.2038 67.4719 50.9498 72.3713 57.9668L72.048 58.4978C65.2815 51.9008 64.1627 51.3308 60.4839 48.9578Z" fill="#090940"/>
<path fill-rule="evenodd" clip-rule="evenodd" d="M74.1016 65.3436L74.4014 64.7876C75.0345 64.9576 75.0558 64.8616 75.5137 65.1776C75.9268 65.4626 76.2842 66.7426 76.3113 66.8176L76.0108 67.3746C75.9517 67.3586 74.9775 67.2226 74.6706 66.7416C74.3294 66.2076 74.3893 66.1536 74.1016 65.3436Z" fill="#090940"/>
<path fill-rule="evenodd" clip-rule="evenodd" d="M74.3601 71.9317L74.672 71.3877C76.0521 71.7747 76.1974 71.9287 76.4544 73.8877L76.0564 74.3047C75.978 74.2527 75.3058 73.7977 75.0957 73.6097C74.7304 73.2847 74.3765 71.9817 74.3601 71.9317Z" fill="#090940"/>
<path fill-rule="evenodd" clip-rule="evenodd" d="M16.1338 60.3539L16.1908 59.6609C19.1468 59.8349 20.7675 59.6159 25.3329 59.1399C27.3874 58.9259 27.3867 58.9499 37.0181 58.3169L37.0744 59.0099C30.3584 60.6779 27.3248 61.0349 24.8331 61.1209C19.5114 61.3059 16.6693 60.4789 16.1338 60.3539Z" fill="#090940"/>
<path fill-rule="evenodd" clip-rule="evenodd" d="M18.6055 62.9629L18.562 62.2729C19.93 62.0569 20.9498 62.7719 27.1039 61.8019C34.3818 60.6549 38.406 59.8299 39.3866 59.6289L39.4913 60.3109C34.1959 62.3899 30.6403 63.4189 27.2207 63.7079C22.2415 64.1299 19.9863 63.0779 18.6055 62.9629Z" fill="#090940"/>
<path fill-rule="evenodd" clip-rule="evenodd" d="M21.1208 66.5897L21.1294 65.8927C23.2722 65.7097 24.3874 65.5697 29.6599 65.5527C32.1324 65.5447 33.4448 65.4467 37.3038 65.0747L37.3793 65.7647C30.1213 68.1237 29.7304 67.8427 21.1208 66.5897Z" fill="#090940"/>
<path fill-rule="evenodd" clip-rule="evenodd" d="M27.6274 70.024L28.0924 69.776C28.2491 70.19 28.299 70.354 29.4932 70.074C30.3591 69.871 32.8772 69.073 34.5663 68.714C37.3294 68.125 41.2296 67.953 42.4794 67.874L42.5421 68.566C38.5912 69.761 34.9138 71.025 29.8706 71.231C28.0946 71.303 27.8361 70.939 27.6274 70.024Z" fill="#090940"/>
<path fill-rule="evenodd" clip-rule="evenodd" d="M38.4595 103.658L38.4089 102.964C39.6765 102.372 39.6174 101.402 41.1955 99.8601C42.7443 98.3481 45.1734 98.0381 45.8449 97.9331L45.9703 98.6091C45.5943 98.8471 43.5583 100.073 40.4947 102.729C39.3618 103.712 38.953 103.657 38.4595 103.658Z" fill="#090940"/>
<path fill-rule="evenodd" clip-rule="evenodd" d="M23.4629 117.331L23.0349 116.991C23.7777 115.198 29.8015 109.229 35.8488 106.139C42.0279 102.982 44.9825 103.636 45.4546 103.709L45.4169 104.405C42.9814 104.407 40.1322 105.562 35.4657 108.428C24.7618 115.001 23.6053 117.105 23.4629 117.331Z" fill="#090940"/>
<path fill-rule="evenodd" clip-rule="evenodd" d="M27.5533 119.883L27.2207 119.365C32.1892 112.443 37.9439 108.153 46.6638 105.253L46.8055 105.922C43.3503 107.721 41.08 109.148 37.2175 111.834C32.5474 115.081 30.4488 116.754 27.5533 119.883Z" fill="#090940"/>
<path fill-rule="evenodd" clip-rule="evenodd" d="M30.31 121.959L30.0173 121.395C37.3379 112.964 43.3283 112.923 47.9194 112.117L48.0319 112.796C45.7873 113.653 44.3303 113.841 39.5712 116.149C35.3091 118.217 33.3073 119.413 30.31 121.959Z" fill="#090940"/>
<path fill-rule="evenodd" clip-rule="evenodd" d="M33.8071 122.147L33.6099 121.506C36.8023 119.022 40.3829 116.301 45.827 116.253L45.8704 116.948C43.2712 117.77 42.8439 118.161 40.3337 119.364C38.5747 120.207 38.5548 120.112 33.8071 122.147Z" fill="#090940"/>
<path fill-rule="evenodd" clip-rule="evenodd" d="M30.0727 120.754L29.8413 120.136C38.4366 112.79 39.017 112.556 49.028 109.359L49.1682 110.029C42.4337 113.466 42.4131 113.384 39.2933 115.115C36.7916 116.504 34.8738 117.76 30.0727 120.754Z" fill="#090940"/>
<path fill-rule="evenodd" clip-rule="evenodd" d="M5.72876 52.9667L6.15888 52.6177C8.3451 56.1727 8.55164 56.5287 10.2023 60.1707L9.83771 60.6447C7.01558 57.6987 6.91231 57.6197 5.72876 52.9667Z" fill="#090940"/>
<path fill-rule="evenodd" clip-rule="evenodd" d="M6.86743 49.5328L7.32463 49.2578C8.20268 51.4578 8.7866 52.4808 10.0606 55.0238C11.566 58.0278 12.0111 59.1528 14.4465 65.0958L14.0421 65.5008C11.7839 61.8178 8.60714 56.9798 6.86743 49.5328Z" fill="#090940"/>
</g>
<defs>
<clipPath id="clip0_80_177">
<rect width="141" height="162" fill="white"/>
</clipPath>
</defs>
</svg>
